HIERARCHY
ROOT Hips
{
	OFFSET 0.000000 71.427986 0.000000
	CHANNELS 6 Xposition Yposition Zposition Xrotation Yrotation Zrotation
	JOINT Pelvis
	{
		OFFSET 0.000000 0.000000 0.000000
		CHANNELS 3 Xrotation Yrotation Zrotation
		JOINT LeftUpLeg
		{
			OFFSET 6.797100 -2.508499 -1.318700
			CHANNELS 3 Xrotation Yrotation Zrotation
			JOINT LeftLeg
			{
				OFFSET 0.069008 -29.241863 0.690200
				CHANNELS 3 Xrotation Yrotation Zrotation
				JOINT LeftFoot
				{
					OFFSET -0.069008 -29.568123 -0.266800
					CHANNELS 3 Xrotation Yrotation Zrotation
					JOINT LeftToeBase
					{
						OFFSET 3.145500 -8.631000 16.059900
						CHANNELS 3 Xrotation Yrotation Zrotation
						End Site
						{
							OFFSET 0.000000 18.501587 0.000000
						}
					}
				}
			}
			JOINT Left_ShortSleeve
			{
				OFFSET 0.265923 -10.480953 1.153800
				CHANNELS 3 Xrotation Yrotation Zrotation
				End Site
				{
					OFFSET 1.725763 19.823879 0.000000
				}
			}
		}
		JOINT RightUpLeg
		{
			OFFSET -6.797100 -2.508499 -1.318700
			CHANNELS 3 Xrotation Yrotation Zrotation
			JOINT RightLeg
			{
				OFFSET -0.082453 -29.241932 0.688000
				CHANNELS 3 Xrotation Yrotation Zrotation
				JOINT RightFoot
				{
					OFFSET 0.082453 -29.568058 -0.264600
					CHANNELS 3 Xrotation Yrotation Zrotation
					JOINT RightToeBase
					{
						OFFSET -3.115300 -8.682800 16.113400
						CHANNELS 3 Xrotation Yrotation Zrotation
						End Site
						{
							OFFSET 0.000000 18.567114 0.000000
						}
					}
				}
			}
			JOINT Right_ShortSleeve
			{
				OFFSET -0.265923 -10.480953 1.153800
				CHANNELS 3 Xrotation Yrotation Zrotation
				End Site
				{
					OFFSET -1.725766 19.823910 0.000000
				}
			}
		}
	}
	JOINT Spine
	{
		OFFSET 0.000000 13.368103 0.470500
		CHANNELS 3 Xrotation Yrotation Zrotation
		JOINT Spine1
		{
			OFFSET 0.147000 13.837402 0.538800
			CHANNELS 3 Xrotation Yrotation Zrotation
			JOINT Spine2
			{
				OFFSET 0.168000 16.242897 -1.435500
				CHANNELS 3 Xrotation Yrotation Zrotation
				JOINT Neck
				{
					OFFSET 0.217200 18.631500 -1.679100
					CHANNELS 3 Xrotation Yrotation Zrotation
					JOINT Head
					{
						OFFSET 0.000000 6.599396 1.385900
						CHANNELS 3 Xrotation Yrotation Zrotation
						JOINT Hat
						{
							OFFSET -0.532200 27.220596 -10.096100
							CHANNELS 3 Xrotation Yrotation Zrotation
							End Site
							{
								OFFSET 0.000000 22.029861 0.000000
							}
						}
						JOINT HairD
						{
							OFFSET -10.777400 17.437393 -1.325900
							CHANNELS 3 Xrotation Yrotation Zrotation
							JOINT HairD1
							{
								OFFSET -3.290299 -11.051193 1.062200
								CHANNELS 3 Xrotation Yrotation Zrotation
								End Site
								{
									OFFSET 0.000000 11.579437 0.000000
								}
							}
						}
						JOINT HairB
						{
							OFFSET -10.777400 17.437393 1.467900
							CHANNELS 3 Xrotation Yrotation Zrotation
							JOINT HairB1
							{
								OFFSET -1.561200 -12.956299 3.590200
								CHANNELS 3 Xrotation Yrotation Zrotation
								End Site
								{
									OFFSET 0.000000 13.534866 0.000000
								}
							}
						}
						JOINT HairA
						{
							OFFSET 9.713100 17.437393 1.467900
							CHANNELS 3 Xrotation Yrotation Zrotation
							JOINT HairA1
							{
								OFFSET 1.561200 -12.956299 3.590200
								CHANNELS 3 Xrotation Yrotation Zrotation
								End Site
								{
									OFFSET 0.000000 13.534866 0.000000
								}
							}
						}
						JOINT HairC
						{
							OFFSET 9.713100 17.437393 -1.325900
							CHANNELS 3 Xrotation Yrotation Zrotation
							JOINT HairC1
							{
								OFFSET 3.290300 -11.051193 1.062200
								CHANNELS 3 Xrotation Yrotation Zrotation
								End Site
								{
									OFFSET 0.000000 11.579437 0.000000
								}
							}
						}
					}
				}
				JOINT LeftShoulder
				{
					OFFSET 5.101800 15.108002 -2.763700
					CHANNELS 3 Xrotation Yrotation Zrotation
					JOINT LeftArm
					{
						OFFSET 9.825497 2.506317 -1.597400
						CHANNELS 3 Xrotation Yrotation Zrotation
						JOINT LeftForeArm
						{
							OFFSET 21.966244 0.000000 0.000000
							CHANNELS 3 Xrotation Yrotation Zrotation
							JOINT LeftHand
							{
								OFFSET 33.879036 0.000000 0.000000
								CHANNELS 3 Xrotation Yrotation Zrotation
								JOINT LeftHandThumb1
								{
									OFFSET 6.715286 -2.359680 3.363841
									CHANNELS 3 Xrotation Yrotation Zrotation
									JOINT LeftHandThumb2
									{
										OFFSET 2.507072 -1.447464 1.447461
										CHANNELS 3 Xrotation Yrotation Zrotation
										JOINT LeftHandThumb3
										{
											OFFSET 2.898338 -1.673355 1.673357
											CHANNELS 3 Xrotation Yrotation Zrotation
											End Site
											{
												OFFSET -0.295959 3.727692 -0.131651
											}
										}
									}
								}
								JOINT LeftHandIndex1
								{
									OFFSET 14.190811 -0.254547 3.840278
									CHANNELS 3 Xrotation Yrotation Zrotation
									JOINT LeftHandIndex2
									{
										OFFSET 3.551727 0.000000 -0.000000
										CHANNELS 3 Xrotation Yrotation Zrotation
										JOINT LeftHandIndex3
										{
											OFFSET 2.894196 0.000000 0.000000
											CHANNELS 3 Xrotation Yrotation Zrotation
											End Site
											{
												OFFSET -1.000603 2.690872 0.366626
											}
										}
									}
								}
								JOINT LeftHandMiddle1
								{
									OFFSET 13.776489 0.000000 0.000000
									CHANNELS 3 Xrotation Yrotation Zrotation
									JOINT LeftHandMiddle2
									{
										OFFSET 3.438232 0.000000 0.000000
										CHANNELS 3 Xrotation Yrotation Zrotation
										JOINT LeftHandMiddle3
										{
											OFFSET 3.691551 0.000000 0.000000
											CHANNELS 3 Xrotation Yrotation Zrotation
											End Site
											{
												OFFSET -1.082298 3.499527 0.457670
											}
										}
									}
								}
								JOINT LeftHandRing1
								{
									OFFSET 13.966164 -0.268127 -3.067488
									CHANNELS 3 Xrotation Yrotation Zrotation
									JOINT LeftHandRing2
									{
										OFFSET 3.162567 0.000000 0.000000
										CHANNELS 3 Xrotation Yrotation Zrotation
										JOINT LeftHandRing3
										{
											OFFSET 3.324348 0.000000 0.000000
											CHANNELS 3 Xrotation Yrotation Zrotation
											End Site
											{
												OFFSET -0.861900 3.184998 0.405154
											}
										}
									}
								}
								JOINT LeftHandPinky1
								{
									OFFSET 13.131393 -0.168503 -5.746925
									CHANNELS 3 Xrotation Yrotation Zrotation
									JOINT LeftHandPinky2
									{
										OFFSET 2.849182 0.000000 0.000000
										CHANNELS 3 Xrotation Yrotation Zrotation
										JOINT LeftHandPinky3
										{
											OFFSET 2.805038 0.000000 0.000000
											CHANNELS 3 Xrotation Yrotation Zrotation
											End Site
											{
												OFFSET -0.882500 2.642609 0.325652
											}
										}
									}
								}
							}
							JOINT Left_Sleeve
							{
								OFFSET 6.592125 -0.646545 0.805568
								CHANNELS 3 Xrotation Yrotation Zrotation
								End Site
								{
									OFFSET -0.000179 20.275787 -0.000000
								}
							}
						}
					}
				}
				JOINT RightShoulder
				{
					OFFSET -5.731700 15.108002 -2.763700
					CHANNELS 3 Xrotation Yrotation Zrotation
					JOINT RightArm
					{
						OFFSET -9.825497 2.506317 -1.597400
						CHANNELS 3 Xrotation Yrotation Zrotation
						JOINT RightForeArm
						{
							OFFSET -21.966242 0.000000 0.000000
							CHANNELS 3 Xrotation Yrotation Zrotation
							JOINT RightHand
							{
								OFFSET -33.879032 0.000000 0.000000
								CHANNELS 3 Xrotation Yrotation Zrotation
								JOINT RightHandThumb1
								{
									OFFSET -6.715286 -2.359680 3.363841
									CHANNELS 3 Xrotation Yrotation Zrotation
									JOINT RightHandThumb2
									{
										OFFSET -2.507072 -1.447464 1.447461
										CHANNELS 3 Xrotation Yrotation Zrotation
										JOINT RightHandThumb3
										{
											OFFSET -2.898338 -1.673355 1.673357
											CHANNELS 3 Xrotation Yrotation Zrotation
											End Site
											{
												OFFSET 0.295959 3.727692 -0.131651
											}
										}
									}
								}
								JOINT RightHandIndex1
								{
									OFFSET -14.190811 -0.254547 3.840278
									CHANNELS 3 Xrotation Yrotation Zrotation
									JOINT RightHandIndex2
									{
										OFFSET -3.551727 0.000000 -0.000000
										CHANNELS 3 Xrotation Yrotation Zrotation
										JOINT RightHandIndex3
										{
											OFFSET -2.894196 0.000000 0.000000
											CHANNELS 3 Xrotation Yrotation Zrotation
											End Site
											{
												OFFSET 1.000603 2.690872 0.366626
											}
										}
									}
								}
								JOINT RightHandMiddle1
								{
									OFFSET -13.776489 0.000000 0.000000
									CHANNELS 3 Xrotation Yrotation Zrotation
									JOINT RightHandMiddle2
									{
										OFFSET -3.438232 0.000000 0.000000
										CHANNELS 3 Xrotation Yrotation Zrotation
										JOINT RightHandMiddle3
										{
											OFFSET -3.691551 0.000000 0.000000
											CHANNELS 3 Xrotation Yrotation Zrotation
											End Site
											{
												OFFSET 1.082298 3.499527 0.457670
											}
										}
									}
								}
								JOINT RightHandRing1
								{
									OFFSET -13.966164 -0.268127 -3.067488
									CHANNELS 3 Xrotation Yrotation Zrotation
									JOINT RightHandRing2
									{
										OFFSET -3.162567 0.000000 0.000000
										CHANNELS 3 Xrotation Yrotation Zrotation
										JOINT RightHandRing3
										{
											OFFSET -3.324348 0.000000 0.000000
											CHANNELS 3 Xrotation Yrotation Zrotation
											End Site
											{
												OFFSET 0.861900 3.184998 0.405154
											}
										}
									}
								}
								JOINT RightHandPinky1
								{
									OFFSET -13.131393 -0.168503 -5.746925
									CHANNELS 3 Xrotation Yrotation Zrotation
									JOINT RightHandPinky2
									{
										OFFSET -2.849182 0.000000 0.000000
										CHANNELS 3 Xrotation Yrotation Zrotation
										JOINT RightHandPinky3
										{
											OFFSET -2.805038 0.000000 0.000000
											CHANNELS 3 Xrotation Yrotation Zrotation
											End Site
											{
												OFFSET 0.882500 2.642609 0.325652
											}
										}
									}
								}
							}
							JOINT Right_Sleeve
							{
								OFFSET -6.592125 -0.646545 0.805568
								CHANNELS 3 Xrotation Yrotation Zrotation
								End Site
								{
									OFFSET 0.000179 20.275787 -0.000000
								}
							}
						}
					}
				}
				JOINT Bind_Right_JacketString
				{
					OFFSET -3.534800 11.969597 7.200700
					CHANNELS 3 Xrotation Yrotation Zrotation
					JOINT Bind_Right_JacketString1
					{
						OFFSET -0.319900 -6.102600 2.794100
						CHANNELS 3 Xrotation Yrotation Zrotation
						End Site
						{
							OFFSET 0.000000 6.719452 0.000000
						}
					}
				}
				JOINT Bind_Left_JacketString
				{
					OFFSET 2.904800 11.969597 7.200700
					CHANNELS 3 Xrotation Yrotation Zrotation
					JOINT Bind_Left_JacketString1
					{
						OFFSET 0.364800 -5.904503 3.186800
						CHANNELS 3 Xrotation Yrotation Zrotation
						End Site
						{
							OFFSET 0.000000 6.719513 0.000000
						}
					}
				}
				JOINT HairE
				{
					OFFSET 5.915200 17.612701 -11.592200
					CHANNELS 3 Xrotation Yrotation Zrotation
					JOINT HairE1
					{
						OFFSET 0.289200 -7.171898 -1.284500
						CHANNELS 3 Xrotation Yrotation Zrotation
						End Site
						{
							OFFSET 0.000000 7.291756 0.000000
						}
					}
				}
				JOINT HairF
				{
					OFFSET -0.864800 17.612701 -11.592200
					CHANNELS 3 Xrotation Yrotation Zrotation
					JOINT HairF1
					{
						OFFSET 0.000000 -14.087097 -2.127501
						CHANNELS 3 Xrotation Yrotation Zrotation
						End Site
						{
							OFFSET 0.000000 14.246841 0.000000
						}
					}
				}
				JOINT HairG
				{
					OFFSET -8.087700 17.612701 -11.592200
					CHANNELS 3 Xrotation Yrotation Zrotation
					JOINT HairG1
					{
						OFFSET -0.293600 -6.081398 -0.910100
						CHANNELS 3 Xrotation Yrotation Zrotation
						End Site
						{
							OFFSET 0.000000 6.156120 0.000000
						}
					}
				}
			}
		}
	}
	JOINT Pouch
	{
		OFFSET 0.000000 4.394501 10.847300
		CHANNELS 3 Xrotation Yrotation Zrotation
		End Site
		{
			OFFSET 0.000000 21.880577 0.000000
		}
	}
	JOINT Bag
	{
		OFFSET -13.229000 4.813004 -0.593300
		CHANNELS 3 Xrotation Yrotation Zrotation
		End Site
		{
			OFFSET 0.000000 21.880577 0.000000
		}
	}
	JOINT OccupyGuyFacialAnim_Joint
	{
		OFFSET 1.000000 -70.206398 -1.655000
		CHANNELS 3 Xrotation Yrotation Zrotation
		End Site
		{
			OFFSET 0.000000 21.880577 0.000000
		}
	}
}
MOTION
Frames: 4
Frame Time: 0.033333
4.475299 31.910408 40.714409 12.046072 -9.911638 -6.313182 -0.000000 -0.000001 0.000000 -40.927552 17.172742 39.304115 125.620798 -23.463047 -5.709012 18.534989 -27.140856 -11.765447 0.000002 0.000001 -0.000001 -0.000002 -0.000002 -0.000001 0.115014 -6.152754 -26.972152 75.132853 -26.759763 -3.407423 34.226276 -5.315735 -0.962819 -0.000001 -0.000000 -0.000000 0.000001 0.000001 0.000002 2.740910 2.270152 -0.487198 4.454850 2.969122 1.306458 4.429145 2.972728 1.350002 0.102607 4.593718 -1.182661 4.020316 24.952161 -26.495876 -0.000001 0.000003 -0.000001 -0.000001 0.000003 -0.000001 -0.000001 0.000003 -0.000002 -0.000001 0.000003 -0.000001 -0.000002 0.000001 -0.000000 -0.000001 0.000003 -0.000001 -0.000002 0.000001 -0.000000 -0.000001 0.000003 -0.000001 -0.000001 0.000003 -0.000001 -0.478518 -15.972894 -17.653618 -20.117409 26.003360 -44.532772 -28.418788 -41.637550 -21.740093 12.733033 -8.812384 1.164970 -5.986095 -6.128947 4.595121 5.975200 12.647544 1.348341 0.000001 -0.000000 -0.000003 1.294150 3.763678 -16.736045 0.120128 1.382572 -13.589611 0.000002 -0.000001 -0.000000 -1.709931 4.618639 -16.395881 -2.989134 2.356798 -13.059036 0.000000 -0.000003 -0.000001 -4.494033 5.611438 -15.319819 -4.109002 2.825905 -12.620395 -0.000000 -0.000000 -0.000000 -5.287639 5.516260 -14.979722 -5.209484 3.359677 -12.028456 0.000001 -0.000003 -0.000001 -0.000000 0.000003 -0.000000 -0.023703 8.784568 21.921907 -19.374588 -9.917356 57.932271 154.627451 172.157199 -188.960899 -21.679312 15.886682 -29.091896 13.942457 -4.273678 -5.300375 7.113166 -20.767484 -2.619478 0.000000 0.000000 0.000001 0.357764 -5.832702 5.175863 0.094353 -0.933631 11.539895 0.000001 0.000001 -0.000003 3.764097 -12.080494 1.143740 5.714277 -4.535860 103.133507 0.000004 -0.000001 0.000003 -12.155605 -12.623909 9.228332 6.566864 -4.248458 114.232312 -0.000002 0.000002 -0.000003 -17.635753 -10.496867 3.325431 4.993701 -4.645014 94.147935 -0.000001 0.000002 0.000001 0.000002 -0.000001 0.000001 -0.000001 0.000000 0.000000 -0.000001 0.000000 -0.000000 -0.000001 0.000000 0.000000 -0.000001 0.000000 0.000000 -0.000001 0.000000 0.000000 -0.000001 0.000000 -0.000000 -0.000001 0.000000 0.000000 -0.000001 0.000000 0.000000 -0.000001 0.000000 0.000000 -0.000001 0.000000 -0.000000 -0.000000 -0.000001 0.000000 -0.000000 -0.000001 0.000000 -0.000000 -0.000001 0.000000 
3.967535 31.731415 40.946507 13.142978 -8.428225 -5.937263 0.000000 0.000000 0.000001 -41.828280 15.538988 39.568775 125.686054 -23.698431 -5.735603 20.706553 -27.339391 -9.781947 -0.000002 0.000003 0.000001 0.000001 0.000003 0.000001 0.336438 -7.621668 -26.241602 74.693241 -27.029982 -3.474416 34.468768 -5.277863 0.112618 0.000002 0.000001 -0.000002 0.000001 0.000000 -0.000003 2.809909 2.340388 -0.849062 4.495000 3.031777 0.702526 4.467566 3.049952 0.769408 0.786283 5.096087 -1.343273 7.997903 27.204908 -27.362136 -0.000002 0.000000 -0.000001 -0.000002 0.000000 -0.000001 -0.000002 0.000000 0.000000 -0.000002 0.000000 -0.000003 -0.000003 0.000001 -0.000001 -0.000002 0.000000 -0.000003 -0.000003 0.000001 -0.000001 -0.000002 0.000000 -0.000001 -0.000002 0.000000 -0.000001 -0.415089 -15.171144 -18.657881 -16.156162 21.342511 -46.950696 -31.145902 -51.282037 -27.222042 -2.396962 -1.681032 0.023913 -5.986652 -6.128772 4.595202 5.975201 12.647542 1.348340 -0.000000 0.000002 -0.000000 1.297896 3.763849 -16.736182 0.120347 1.382639 -13.590885 0.000001 0.000002 0.000002 -1.711455 4.618776 -16.395803 -2.989362 2.358090 -13.060579 0.000000 -0.000001 -0.000001 -4.495804 5.611510 -15.319766 -4.110469 2.826605 -12.622305 -0.000005 -0.000003 0.000000 -5.288991 5.516087 -14.979713 -5.210770 3.360615 -12.030269 0.000002 -0.000000 0.000003 0.000000 -0.000000 0.000000 -0.258793 8.985028 21.846252 -19.371024 -10.433655 58.221441 154.580049 171.521500 -188.597915 -23.507433 14.854236 -28.827131 13.942457 -4.273685 -5.300374 7.113165 -20.767486 -2.619474 -0.000000 -0.000001 0.000001 0.357769 -5.832706 5.175864 0.094352 -0.933634 11.539901 0.000002 0.000003 0.000001 3.764101 -12.080496 1.143743 5.714279 -4.535856 103.133507 -0.000002 0.000000 -0.000001 -12.155603 -12.623911 9.228327 6.566861 -4.248460 114.232312 0.000002 -0.000002 -0.000003 -17.635757 -10.496870 3.325431 4.993701 -4.645014 94.147935 0.000003 0.000001 -0.000001 0.000004 0.000001 -0.000003 -0.000000 -0.000000 -0.000000 -0.000002 0.000000 -0.000000 -0.000000 -0.000000 -0.000001 -0.000000 -0.000000 -0.000001 -0.000000 -0.000000 -0.000000 -0.000002 0.000000 -0.000000 -0.000000 -0.000000 -0.000001 -0.000000 -0.000000 -0.000001 -0.000000 -0.000000 -0.000000 -0.000002 0.000000 -0.000000 0.000000 0.000000 0.000001 0.000000 0.000000 0.000001 0.000000 0.000000 0.000001 
3.479540 31.551064 41.216080 14.310670 -6.880110 -5.564688 -0.000001 -0.000000 -0.000000 -42.835726 13.975873 39.840036 125.742417 -24.009852 -5.773760 22.943345 -27.244417 -7.475634 0.000000 0.000001 -0.000003 -0.000000 0.000000 0.000002 0.623752 -9.186554 -25.498107 74.025351 -26.884791 -3.490379 35.030937 -4.990748 0.798022 0.000001 -0.000001 0.000001 0.000001 0.000000 -0.000001 2.982769 2.353588 -1.048447 4.528462 3.073664 0.171821 4.499952 3.100547 0.260913 1.399696 5.587338 -1.487021 11.721440 29.248752 -28.732280 0.000001 0.000001 -0.000000 0.000001 0.000001 -0.000000 0.000001 0.000001 -0.000001 0.000001 0.000001 0.000001 -0.000000 -0.000001 -0.000001 0.000001 0.000001 0.000001 -0.000000 -0.000001 -0.000001 0.000001 0.000001 -0.000000 0.000001 0.000001 -0.000000 -0.364152 -14.420418 -19.635032 -14.060125 17.214143 -49.259980 -37.810534 -56.166541 -34.852297 -5.399563 1.348767 -1.187617 -5.987470 -6.128576 4.595829 5.975202 12.647547 1.348334 -0.000000 0.000001 0.000002 1.300498 3.763792 -16.736310 0.120578 1.382778 -13.592712 0.000003 0.000001 -0.000002 -1.713167 4.618930 -16.395726 -2.990227 2.359524 -13.062462 -0.000002 0.000003 0.000001 -4.497455 5.611920 -15.319628 -4.112498 2.827351 -12.624325 0.000000 0.000002 0.000000 -5.289459 5.516522 -14.979600 -5.212388 3.361647 -12.031809 0.000000 0.000002 0.000001 -0.000001 0.000001 -0.000001 -0.396792 9.346164 21.801732 -19.735794 -11.229912 58.252382 152.782589 170.571339 -187.917588 -23.358916 14.137191 -28.843687 13.942463 -4.273684 -5.300373 7.113163 -20.767484 -2.619476 -0.000001 0.000004 0.000001 0.357767 -5.832705 5.175865 0.094349 -0.933628 11.539901 0.000001 -0.000004 -0.000000 3.764098 -12.080493 1.143747 5.714278 -4.535856 103.133507 -0.000001 0.000001 -0.000001 -12.155604 -12.623907 9.228336 6.566861 -4.248454 114.232312 -0.000000 -0.000001 -0.000004 -17.635757 -10.496864 3.325437 4.993700 -4.645015 94.147929 0.000003 0.000002 -0.000001 0.000003 -0.000001 0.000003 -0.000001 -0.000000 -0.000000 0.000001 -0.000000 -0.000000 -0.000001 -0.000000 -0.000000 -0.000001 -0.000000 -0.000000 -0.000001 -0.000000 -0.000000 0.000001 -0.000000 -0.000000 -0.000001 -0.000000 -0.000000 -0.000001 -0.000000 -0.000000 -0.000001 -0.000000 -0.000000 0.000001 -0.000000 -0.000000 -0.000001 -0.000000 -0.000000 -0.000001 -0.000000 -0.000000 -0.000001 -0.000000 -0.000000 
2.909605 31.309883 41.460297 15.579310 -5.368019 -5.218521 -0.000001 0.000000 -0.000000 -43.921473 12.017305 39.616142 126.283641 -23.779995 -5.756524 24.327250 -27.454434 -5.106593 0.000000 -0.000000 -0.000003 -0.000002 -0.000002 -0.000001 0.871417 -10.972027 -24.917032 73.302403 -26.544287 -3.481623 35.475323 -4.531601 1.525840 0.000001 -0.000001 -0.000001 0.000001 0.000001 -0.000000 3.216485 2.284952 -1.085932 4.558744 3.045144 -0.339964 4.530514 3.086153 -0.238271 1.934375 6.148335 -1.660200 15.439402 31.423907 -30.640734 -0.000001 0.000001 -0.000000 -0.000001 0.000001 -0.000000 -0.000001 0.000001 -0.000001 -0.000001 0.000001 -0.000001 -0.000003 0.000000 -0.000001 -0.000001 0.000001 -0.000001 -0.000003 0.000000 -0.000001 -0.000001 0.000001 -0.000000 -0.000001 0.000001 -0.000000 -0.353297 -13.952208 -20.519808 -12.595028 13.683463 -51.719582 -40.340726 -60.078986 -38.448525 0.386311 1.600243 -3.982401 -5.988559 -6.128339 4.597074 5.975202 12.647544 1.348338 -0.000003 0.000004 -0.000001 1.302069 3.763548 -16.736361 0.120793 1.382963 -13.594890 0.000002 0.000001 -0.000002 -1.714845 4.619070 -16.395601 -2.991515 2.360966 -13.064420 0.000001 -0.000002 0.000000 -4.498787 5.612571 -15.319402 -4.114806 2.828029 -12.626188 -0.000002 0.000001 -0.000001 -5.289021 5.517509 -14.979402 -5.214085 3.362613 -12.032867 0.000000 0.000001 0.000003 -0.000001 0.000002 0.000000 -0.512867 9.984123 21.712154 -20.632880 -12.182453 57.979263 152.978370 170.150039 -187.596760 -24.880371 13.384841 -29.687574 13.942462 -4.273679 -5.300372 7.113163 -20.767482 -2.619478 -0.000001 -0.000001 -0.000000 0.357762 -5.832705 5.175862 0.094353 -0.933626 11.539903 -0.000003 -0.000001 0.000002 3.764099 -12.080494 1.143745 5.714281 -4.535854 103.133514 -0.000000 -0.000001 -0.000003 -12.155608 -12.623912 9.228329 6.566865 -4.248450 114.232305 0.000002 -0.000001 0.000001 -17.635760 -10.496864 3.325432 4.993699 -4.645009 94.147935 0.000003 0.000001 0.000001 0.000001 -0.000001 0.000003 0.000001 -0.000000 0.000000 0.000001 -0.000000 -0.000000 0.000001 -0.000000 -0.000000 0.000001 -0.000000 -0.000000 0.000001 -0.000000 0.000000 0.000001 -0.000000 -0.000000 0.000001 -0.000000 -0.000000 0.000001 -0.000000 -0.000000 0.000001 -0.000000 0.000000 0.000001 -0.000000 -0.000000 -0.000001 0.000000 -0.000000 -0.000001 0.000000 -0.000000 -0.000001 0.000000 -0.000000 
